<svg width="25" xmlns="http://www.w3.org/2000/svg" height="25" id="screenshot-21df7131-ac05-802e-8007-3b0662dc58e6" viewBox="0 0 25 25" xmlns:xlink="http://www.w3.org/1999/xlink" fill="none" version="1.1"><g id="shape-21df7131-ac05-802e-8007-3b0662dc58e6" class="ionicon" rx="0" ry="0" style="fill: rgb(0, 0, 0);"><g id="shape-21df7131-ac05-802e-8007-3b0662dda226"><g class="fills" id="fills-21df7131-ac05-802e-8007-3b0662dda226"><path d="M12.674880981445312,0C5.644500732421875,-0.0947265625,-0.0949554443359375,5.64453125,0,12.67431640625C0.09375,19.41650390625,5.58380126953125,24.90625,12.326309204101562,25C19.357894897460938,25.09619140625,25.096160888671875,19.35693359375,25,12.3271484375C24.907440185546875,5.58349609375,19.417404174804688,0.09375,12.674880981445312,0ZM12.453720092773438,9.14111328125C12.466339111328125,9.0693359375,12.48016357421875,8.9970703125,12.49639892578125,8.92578125C12.648178100585938,8.2236328125,12.98638916015625,7.57568359375,13.47540283203125,7.0498046875C14.250076293945312,6.224609375,15.348098754882812,5.76953125,16.5675048828125,5.76953125C17.080535888671875,5.76708984375,17.590072631835938,5.853515625,18.073577880859375,6.025390625C18.674636840820312,6.2392578125,19.215896606445312,6.59375,19.652389526367188,7.05859375C20.29449462890625,7.7529296875,20.67669677734375,8.6474609375,20.734176635742188,9.59130859375C20.75079345703125,9.8193359375,20.75079345703125,10.04833984375,20.734176635742188,10.2763671875C20.687896728515625,10.9228515625,20.520721435546875,11.5546875,20.241363525390625,12.1396484375C20.210906982421875,12.203125,20.179061889648438,12.26611328125,20.145797729492188,12.32861328125C20.079086303710938,12.453125,20.007568359375,12.5751953125,19.930648803710938,12.69287109375C19.77752685546875,12.92822265625,19.603958129882812,13.1494140625,19.4119873046875,13.35400390625C18.623489379882812,14.1953125,17.61383056640625,14.66015625,16.568710327148438,14.66015625C16.176803588867188,14.65966796875,15.78759765625,14.5947265625,15.416610717773438,14.46875C15.291976928710938,14.42626953125,15.169601440429688,14.3779296875,15.050003051757812,14.32275390625C14.549118041992188,14.0888671875,14.09857177734375,13.759765625,13.723617553710938,13.35400390625C12.943099975585938,12.5078125,12.476425170898438,11.4189453125,12.401443481445312,10.26953125C12.390625,10.1142578125,12.387008666992188,9.9609375,12.390625,9.80859375C12.395278930664062,9.5849609375,12.416366577148438,9.3623046875,12.453720092773438,9.142578125ZM3.4550933837890625,10.60400390625C3.4843292236328125,10.17529296875,3.590179443359375,9.7548828125,3.767608642578125,9.36328125C3.817657470703125,9.25439453125,3.8734283447265625,9.1484375,3.9346771240234375,9.044921875C4.05718994140625,8.83837890625,4.2021026611328125,8.6455078125,4.366790771484375,8.470703125C4.6107635498046875,8.21044921875,4.8948211669921875,7.99072265625,5.2081756591796875,7.8203125C5.36468505859375,7.734375,5.52764892578125,7.66162109375,5.695587158203125,7.6015625C6.3390655517578125,7.37646484375,7.0308990478515625,7.3271484375,7.69989013671875,7.4580078125C8.408782958984375,7.5947265625,9.056198120117188,7.95263671875,9.54974365234375,8.4794921875C10.135391235351562,9.11181640625,10.465423583984375,9.9384765625,10.475860595703125,10.80078125C10.478866577148438,10.92724609375,10.475860595703125,11.0546875,10.466842651367188,11.18359375C10.43017578125,11.6787109375,10.30816650390625,12.16357421875,10.10626220703125,12.61669921875C10.009567260742188,12.8349609375,9.89434814453125,13.0439453125,9.761886596679688,13.24267578125C9.507110595703125,13.6279296875,9.186492919921875,13.96484375,8.814727783203125,14.23828125C8.724578857421875,14.302734375,8.630828857421875,14.36328125,8.5340576171875,14.4228515625C8.34375,14.5361328125,8.142379760742188,14.6298828125,7.933074951171875,14.70263671875C7.6201019287109375,14.81201171875,7.290985107421875,14.8681640625,6.95947265625,14.8681640625C6.9035797119140625,14.8681640625,6.847686767578125,14.8681640625,6.792388916015625,14.86328125C6.681976318359375,14.857421875,6.572021484375,14.8447265625,6.4630584716796875,14.826171875C6.3546295166015625,14.8076171875,6.2472991943359375,14.78271484375,6.1415252685546875,14.75244140625C5.982635498046875,14.70654296875,5.8275299072265625,14.6484375,5.67755126953125,14.57861328125C5.6270751953125,14.55517578125,5.577789306640625,14.53076171875,5.52850341796875,14.5048828125C4.4467315673828125,13.9345703125,3.6311798095703125,12.75244140625,3.4713134765625,11.37255859375C3.464111328125,11.3095703125,3.458099365234375,11.24609375,3.453887939453125,11.1826171875C3.440338134765625,10.990234375,3.4407196044921875,10.796875,3.4550933837890625,10.60400390625ZM6.6956329345703125,21.3369140625C5.0954742431640625,20.2822265625,3.8094482421875,18.81591796875,2.9730987548828125,17.09130859375C2.9163818359375,16.9765625,2.9591522216796875,16.837890625,3.070465087890625,16.775390625C4.187103271484375,16.1474609375,5.613250732421875,15.80517578125,6.9606781005859375,15.80517578125C7.98236083984375,15.80517578125,8.805709838867188,15.92578125,9.52630615234375,16.15869140625C9.692672729492188,16.21337890625,9.81610107421875,16.3544921875,9.8485107421875,16.5263671875C9.880889892578125,16.69873046875,9.817062377929688,16.875,9.681961059570312,16.986328125C8.278640747070312,18.1279296875,7.3741455078125,19.54296875,6.949249267578125,21.23828125C6.9363555908203125,21.29052734375,6.898651123046875,21.33349609375,6.8481903076171875,21.353515625C6.7977294921875,21.373046875,6.7407989501953125,21.3671875,6.6956329345703125,21.3369140625ZM12.500595092773438,23.0771484375C11.14752197265625,23.078125,9.806884765625,22.81884765625,8.552093505859375,22.3125C8.446380615234375,22.26904296875,8.38604736328125,22.15673828125,8.407852172851562,22.04443359375C8.431900024414062,21.92138671875,8.458343505859375,21.80859375,8.481781005859375,21.71484375C8.909683227539062,20.0068359375,9.969833374023438,18.58984375,11.546829223632812,17.61767578125C12.946533203125,16.75537109375,14.732070922851562,16.28076171875,16.566299438476562,16.28076171875C18.438980102539062,16.28076171875,20.1722412109375,16.736328125,21.5833740234375,17.59765625C21.6580810546875,17.64453125,21.682266235351562,17.74169921875,21.6380615234375,17.81787109375C19.74432373046875,21.0712890625,16.264999389648438,23.07373046875,12.500595092773438,23.0771484375Z" style="fill: rgb(234, 235, 238); fill-opacity: 1;"/></g></g><g id="shape-21df7131-ac05-802e-8007-3b0662de2106"><g class="fills" id="fills-21df7131-ac05-802e-8007-3b0662de2106"><path d="M6.79119873046875,14.8603515625C6.6807708740234375,14.8544921875,6.5708160400390625,14.841796875,6.46185302734375,14.8232421875C6.5708160400390625,14.841796875,6.6807708740234375,14.8544921875,6.79119873046875,14.8603515625ZM5.2069854736328125,7.8203125C4.89361572265625,7.99072265625,4.60955810546875,8.21044921875,4.3656005859375,8.470703125C4.200897216796875,8.6455078125,4.0559844970703125,8.83837890625,3.9334869384765625,9.044921875C4.0559844970703125,8.83837890625,4.200897216796875,8.6455078125,4.3656005859375,8.470703125C4.60955810546875,8.21044921875,4.89361572265625,7.99072265625,5.2069854736328125,7.8203125ZM10.106857299804688,12.61328125C10.308792114257812,12.16015625,10.430770874023438,11.67578125,10.467453002929688,11.1806640625C10.476470947265625,11.0517578125,10.479476928710938,10.92431640625,10.476470947265625,10.79736328125C10.47967529296875,10.923828125,10.476669311523438,11.05126953125,10.467453002929688,11.1806640625C10.430770874023438,11.67578125,10.308792114257812,12.16015625,10.106857299804688,12.61328125ZM5.2069854736328125,7.8203125C5.3634796142578125,7.734375,5.5264434814453125,7.66162109375,5.6943817138671875,7.6015625C5.5264434814453125,7.66162109375,5.3634796142578125,7.734375,5.2069854736328125,7.8203125ZM6.1427154541015625,14.74951171875C5.9838409423828125,14.703125,5.8287200927734375,14.6455078125,5.6787567138671875,14.57568359375C5.8287200927734375,14.6455078125,5.9838409423828125,14.703125,6.1427154541015625,14.74951171875ZM3.4725189208984375,11.36962890625C3.63238525390625,12.751953125,4.449737548828125,13.931640625,5.5297088623046875,14.501953125C4.44732666015625,13.931640625,3.63238525390625,12.74951171875,3.4725189208984375,11.36962890625ZM12.400833129882812,10.2763671875C12.475830078125,11.42578125,12.9425048828125,12.51416015625,13.7230224609375,13.3603515625C14.097991943359375,13.7666015625,14.548507690429688,14.095703125,15.049407958984375,14.3291015625C14.548507690429688,14.095703125,14.097991943359375,13.7666015625,13.7230224609375,13.3603515625C12.9425048828125,12.51416015625,12.475830078125,11.42578125,12.400833129882812,10.2763671875C12.3900146484375,10.12109375,12.38641357421875,9.96728515625,12.3900146484375,9.81494140625C12.38641357421875,9.96484375,12.3900146484375,10.119140625,12.400833129882812,10.2763671875ZM15.4154052734375,14.47265625C15.290771484375,14.4296875,15.16839599609375,14.38134765625,15.048797607421875,14.326171875C15.16839599609375,14.38134765625,15.290771484375,14.4296875,15.4154052734375,14.47265625ZM12.49639892578125,8.9267578125C12.648178100585938,8.224609375,12.98638916015625,7.5771484375,13.47540283203125,7.05078125C12.98638916015625,7.5771484375,12.648178100585938,8.224609375,12.49639892578125,8.9267578125ZM19.652389526367188,7.05859375C20.29449462890625,7.7529296875,20.67669677734375,8.6474609375,20.734176635742188,9.59130859375C20.67669677734375,8.6474609375,20.29449462890625,7.7529296875,19.652389526367188,7.05859375C19.215896606445312,6.59375,18.674636840820312,6.2392578125,18.073577880859375,6.025390625C18.674636840820312,6.2392578125,19.215896606445312,6.59375,19.652389526367188,7.05859375ZM20.734176635742188,10.2763671875C20.687896728515625,10.9228515625,20.520721435546875,11.5546875,20.241363525390625,12.1396484375C20.520721435546875,11.5546875,20.687896728515625,10.9228515625,20.734176635742188,10.2763671875ZM12.3900146484375,9.81201171875C12.394699096679688,9.58740234375,12.415985107421875,9.36328125,12.453720092773438,9.142578125C12.415985107421875,9.36328125,12.394699096679688,9.58740234375,12.3900146484375,9.81201171875ZM20.14459228515625,12.3291015625ZM9.548538208007812,8.4765625C10.134185791015625,9.10888671875,10.464218139648438,9.935546875,10.474655151367188,10.79736328125C10.464218139648438,9.935546875,10.134185791015625,9.10888671875,9.548538208007812,8.4765625C9.05499267578125,7.94921875,8.407562255859375,7.591796875,7.6986846923828125,7.455078125C8.407562255859375,7.591796875,9.05499267578125,7.94921875,9.548538208007812,8.4765625ZM8.5340576171875,14.4228515625C8.34375,14.5361328125,8.142379760742188,14.6298828125,7.933074951171875,14.70263671875C8.142379760742188,14.6298828125,8.34375,14.5361328125,8.5340576171875,14.4228515625ZM3.4550933837890625,10.60400390625C3.4843292236328125,10.17529296875,3.590179443359375,9.7548828125,3.767608642578125,9.36328125C3.590179443359375,9.7548828125,3.4843292236328125,10.17529296875,3.4550933837890625,10.60400390625ZM8.815322875976562,14.2353515625C8.724578857421875,14.302734375,8.630828857421875,14.36328125,8.5340576171875,14.4228515625C8.630828857421875,14.36328125,8.724578857421875,14.302734375,8.815322875976562,14.2353515625ZM10.106857299804688,12.61328125C10.010177612304688,12.83203125,9.894973754882812,13.041015625,9.762481689453125,13.23974609375C9.894973754882812,13.041015625,10.010177612304688,12.83203125,10.106857299804688,12.61328125ZM3.767608642578125,9.36328125C3.817657470703125,9.25439453125,3.8734283447265625,9.1484375,3.9346771240234375,9.044921875C3.8734283447265625,9.1484375,3.817657470703125,9.25439453125,3.767608642578125,9.36328125ZM8.815322875976562,14.2353515625C9.187103271484375,13.9619140625,9.507705688476562,13.625,9.762481689453125,13.23974609375C9.507705688476562,13.625,9.187103271484375,13.9619140625,8.815322875976562,14.2353515625Z" style="fill: rgb(234, 235, 238); fill-opacity: 1;"/></g></g></g></svg>